<svg width="116" height="48" viewBox="0 0 116 48" fill="none" xmlns="http://www.w3.org/2000/svg">
<rect width="115.115" height="48" fill="#8F0EFC"/>
<path d="M12.8849 29V18.8182H19.7457V20.593H15.0376V23.0192H19.3928V24.794H15.0376V27.2251H19.7656V29H12.8849ZM26.9806 21.7464C26.9409 21.3454 26.7702 21.0339 26.4686 20.8118C26.167 20.5897 25.7576 20.4787 25.2406 20.4787C24.8893 20.4787 24.5926 20.5284 24.3507 20.6278C24.1087 20.724 23.9231 20.8582 23.7939 21.0305C23.6679 21.2029 23.6049 21.3984 23.6049 21.6172C23.5983 21.7995 23.6364 21.9586 23.7193 22.0945C23.8055 22.2304 23.9231 22.348 24.0723 22.4474C24.2214 22.5436 24.3938 22.6281 24.5893 22.701C24.7849 22.7706 24.9937 22.8303 25.2157 22.88L26.1305 23.0987C26.5746 23.1982 26.9823 23.3307 27.3535 23.4964C27.7247 23.6622 28.0462 23.866 28.318 24.108C28.5898 24.3499 28.8002 24.6349 28.9494 24.9631C29.1019 25.2912 29.1797 25.6674 29.1831 26.0916C29.1797 26.7147 29.0207 27.255 28.7058 27.7124C28.3942 28.1664 27.9435 28.5194 27.3535 28.7713C26.7669 29.0199 26.0592 29.1442 25.2306 29.1442C24.4087 29.1442 23.6928 29.0182 23.0829 28.7663C22.4764 28.5144 22.0024 28.1416 21.661 27.6477C21.323 27.1506 21.1457 26.5357 21.1291 25.8033H23.2122C23.2354 26.1446 23.3332 26.4297 23.5055 26.6584C23.6812 26.8838 23.9148 27.0545 24.2065 27.1705C24.5015 27.2831 24.8346 27.3395 25.2058 27.3395C25.5704 27.3395 25.8869 27.2865 26.1554 27.1804C26.4271 27.0743 26.6376 26.9268 26.7868 26.7379C26.9359 26.549 27.0105 26.3319 27.0105 26.0866C27.0105 25.858 26.9425 25.6657 26.8066 25.5099C26.6741 25.3542 26.4785 25.2216 26.22 25.1122C25.9648 25.0028 25.6516 24.9034 25.2804 24.8139L24.1717 24.5355C23.3133 24.3267 22.6355 24.0002 22.1383 23.5561C21.6412 23.112 21.3942 22.5137 21.3975 21.7614C21.3942 21.1449 21.5583 20.6063 21.8897 20.1456C22.2245 19.6849 22.6835 19.3253 23.2669 19.0668C23.8502 18.8082 24.5131 18.679 25.2555 18.679C26.0112 18.679 26.6708 18.8082 27.2342 19.0668C27.801 19.3253 28.2418 19.6849 28.5566 20.1456C28.8715 20.6063 29.0339 21.1399 29.0439 21.7464H26.9806ZM36.1545 21.7464C36.1147 21.3454 35.944 21.0339 35.6424 20.8118C35.3408 20.5897 34.9315 20.4787 34.4144 20.4787C34.0631 20.4787 33.7665 20.5284 33.5245 20.6278C33.2826 20.724 33.0969 20.8582 32.9677 21.0305C32.8417 21.2029 32.7788 21.3984 32.7788 21.6172C32.7721 21.7995 32.8103 21.9586 32.8931 22.0945C32.9793 22.2304 33.0969 22.348 33.2461 22.4474C33.3952 22.5436 33.5676 22.6281 33.7631 22.701C33.9587 22.7706 34.1675 22.8303 34.3896 22.88L35.3043 23.0987C35.7485 23.1982 36.1561 23.3307 36.5273 23.4964C36.8986 23.6622 37.2201 23.866 37.4918 24.108C37.7636 24.3499 37.9741 24.6349 38.1232 24.9631C38.2757 25.2912 38.3536 25.6674 38.3569 26.0916C38.3536 26.7147 38.1945 27.255 37.8796 27.7124C37.5681 28.1664 37.1173 28.5194 36.5273 28.7713C35.9407 29.0199 35.2331 29.1442 34.4045 29.1442C33.5825 29.1442 32.8666 29.0182 32.2567 28.7663C31.6502 28.5144 31.1763 28.1416 30.8349 27.6477C30.4968 27.1506 30.3195 26.5357 30.3029 25.8033H32.386C32.4092 26.1446 32.507 26.4297 32.6793 26.6584C32.855 26.8838 33.0887 27.0545 33.3803 27.1705C33.6753 27.2831 34.0084 27.3395 34.3796 27.3395C34.7442 27.3395 35.0607 27.2865 35.3292 27.1804C35.601 27.0743 35.8114 26.9268 35.9606 26.7379C36.1097 26.549 36.1843 26.3319 36.1843 26.0866C36.1843 25.858 36.1164 25.6657 35.9805 25.5099C35.8479 25.3542 35.6523 25.2216 35.3938 25.1122C35.1386 25.0028 34.8254 24.9034 34.4542 24.8139L33.3455 24.5355C32.4871 24.3267 31.8093 24.0002 31.3121 23.5561C30.815 23.112 30.5681 22.5137 30.5714 21.7614C30.5681 21.1449 30.7321 20.6063 31.0636 20.1456C31.3983 19.6849 31.8574 19.3253 32.4407 19.0668C33.024 18.8082 33.6869 18.679 34.4293 18.679C35.185 18.679 35.8446 18.8082 36.408 19.0668C36.9748 19.3253 37.4156 19.6849 37.7305 20.1456C38.0453 20.6063 38.2077 21.1399 38.2177 21.7464H36.1545ZM41.3274 29H39.0206L42.5355 18.8182H45.3097L48.8196 29H46.5128L43.9624 21.1449H43.8828L41.3274 29ZM41.1832 24.9979H46.6321V26.6783H41.1832V24.9979ZM48.4094 18.8182H50.8207L53.1424 23.2031H53.2418L55.5636 18.8182H57.9748L54.261 25.4006V29H52.1232V25.4006L48.4094 18.8182ZM59.1506 29V18.8182H65.892V20.593H61.3033V23.0192H65.4446V24.794H61.3033V29H59.1506ZM76.6966 23.9091C76.6966 25.0194 76.4861 25.964 76.0652 26.7429C75.6476 27.5218 75.0775 28.1167 74.3549 28.5277C73.6357 28.9354 72.827 29.1392 71.9288 29.1392C71.024 29.1392 70.2119 28.9337 69.4927 28.5227C68.7735 28.1117 68.2051 27.5168 67.7875 26.7379C67.3699 25.959 67.161 25.0161 67.161 23.9091C67.161 22.7988 67.3699 21.8542 67.7875 21.0753C68.2051 20.2964 68.7735 19.7031 69.4927 19.2955C70.2119 18.8845 71.024 18.679 71.9288 18.679C72.827 18.679 73.6357 18.8845 74.3549 19.2955C75.0775 19.7031 75.6476 20.2964 76.0652 21.0753C76.4861 21.8542 76.6966 22.7988 76.6966 23.9091ZM74.514 23.9091C74.514 23.1899 74.4063 22.5833 74.1909 22.0895C73.9788 21.5956 73.6788 21.2211 73.291 20.9659C72.9032 20.7107 72.4492 20.5831 71.9288 20.5831C71.4084 20.5831 70.9544 20.7107 70.5666 20.9659C70.1788 21.2211 69.8772 21.5956 69.6618 22.0895C69.4496 22.5833 69.3436 23.1899 69.3436 23.9091C69.3436 24.6283 69.4496 25.2348 69.6618 25.7287C69.8772 26.2225 70.1788 26.5971 70.5666 26.8523C70.9544 27.1075 71.4084 27.2351 71.9288 27.2351C72.4492 27.2351 72.9032 27.1075 73.291 26.8523C73.6788 26.5971 73.9788 26.2225 74.1909 25.7287C74.4063 25.2348 74.514 24.6283 74.514 23.9091ZM78.2912 29V18.8182H82.3082C83.0772 18.8182 83.7334 18.9557 84.277 19.2308C84.8239 19.5026 85.2398 19.8887 85.5249 20.3892C85.8132 20.8864 85.9574 21.4714 85.9574 22.1442C85.9574 22.8203 85.8116 23.402 85.5199 23.8892C85.2282 24.3731 84.8056 24.7443 84.2521 25.0028C83.7019 25.2614 83.0357 25.3906 82.2536 25.3906H79.5639V23.6605H81.9055C82.3165 23.6605 82.6579 23.6042 82.9297 23.4915C83.2015 23.3788 83.4036 23.2098 83.5362 22.9844C83.6721 22.759 83.7401 22.4789 83.7401 22.1442C83.7401 21.8061 83.6721 21.5211 83.5362 21.2891C83.4036 21.0571 83.1998 20.8814 82.9247 20.7621C82.6529 20.6394 82.3099 20.5781 81.8956 20.5781H80.4439V29H78.2912ZM83.7898 24.3665L86.3203 29H83.9439L81.468 24.3665H83.7898ZM94.2301 22.1094C94.1605 21.8674 94.0627 21.6536 93.9368 21.468C93.8108 21.2791 93.6567 21.12 93.4744 20.9908C93.2955 20.8582 93.09 20.7571 92.858 20.6875C92.6293 20.6179 92.3757 20.5831 92.0973 20.5831C91.5769 20.5831 91.1196 20.7124 90.7251 20.9709C90.334 21.2294 90.0291 21.6056 89.8104 22.0994C89.5916 22.59 89.4822 23.1899 89.4822 23.8991C89.4822 24.6084 89.59 25.2116 89.8054 25.7088C90.0208 26.206 90.3258 26.5855 90.7202 26.8473C91.1146 27.1058 91.5803 27.2351 92.1172 27.2351C92.6044 27.2351 93.0204 27.1489 93.3651 26.9766C93.7131 26.8009 93.9782 26.554 94.1605 26.2358C94.3461 25.9176 94.4389 25.5414 94.4389 25.1072L94.8764 25.1719H92.2514V23.5511H96.5121V24.8338C96.5121 25.7287 96.3232 26.4976 95.9453 27.1406C95.5675 27.7803 95.0471 28.2741 94.3842 28.6222C93.7214 28.9669 92.9624 29.1392 92.1072 29.1392C91.1527 29.1392 90.3142 28.9287 89.5916 28.5078C88.8691 28.0836 88.3056 27.482 87.9013 26.7031C87.5002 25.9209 87.2997 24.9929 87.2997 23.919C87.2997 23.0937 87.419 22.358 87.6577 21.7116C87.8996 21.062 88.2377 20.5118 88.6719 20.0611C89.1061 19.6103 89.6115 19.2673 90.1882 19.032C90.7649 18.7966 91.3897 18.679 92.0625 18.679C92.6392 18.679 93.1761 18.7635 93.6733 18.9325C94.1705 19.0982 94.6113 19.3336 94.9957 19.6385C95.3835 19.9434 95.7 20.3063 95.9453 20.7273C96.1906 21.1449 96.348 21.6056 96.4176 22.1094H94.2301ZM98.1291 29V18.8182H104.99V20.593H100.282V23.0192H104.637V24.794H100.282V27.2251H105.01V29H98.1291Z" fill="white"/>
</svg>
